<svg width="23" height="30" viewBox="0 0 23 30" fill="none" xmlns="http://www.w3.org/2000/svg">
<path d="M22.605 11.2102C22.7601 11.0051 22.8732 10.7704 22.9377 10.52C23.0022 10.2695 23.0168 10.0084 22.9806 9.75205C22.9444 9.49573 22.8581 9.24943 22.7269 9.02772C22.5957 8.80602 22.4222 8.61342 22.2167 8.46134L21.4126 7.86611C21.1474 7.66998 20.9366 7.40719 20.8005 7.10331C20.6644 6.79942 20.6078 6.46479 20.636 6.13195L20.7211 5.12192C20.7443 4.86312 20.7162 4.6022 20.6384 4.35471C20.5607 4.10722 20.4349 3.87824 20.2685 3.68141C20.1021 3.48459 19.8986 3.32395 19.67 3.20908C19.4415 3.09422 19.1926 3.02747 18.9382 3.01282L17.9457 2.95658C17.6188 2.93759 17.3022 2.83265 17.0269 2.65197C16.7515 2.47129 16.5266 2.22101 16.3742 1.92546L15.9147 1.02792C15.7955 0.799009 15.6325 0.596842 15.4353 0.433404C15.2381 0.269966 15.0107 0.148585 14.7667 0.0764618C14.5226 0.004338 14.2668 -0.0170604 14.0145 0.0135356C13.7622 0.0441317 13.5185 0.126099 13.2978 0.254576L12.4339 0.753732C12.1487 0.91845 11.8266 1.00503 11.4989 1.00503C11.1711 1.00503 10.849 0.91845 10.5638 0.753732L9.6999 0.254576C9.47877 0.126828 9.23473 0.0456845 8.98227 0.0159597C8.72981 -0.0137651 8.47407 0.00853441 8.23022 0.0815353C7.98637 0.154536 7.75937 0.276751 7.56271 0.44093C7.36604 0.605108 7.20371 0.807905 7.08534 1.03729L6.62584 1.93483C6.47336 2.23038 6.2485 2.48066 5.97313 2.66134C5.69776 2.84202 5.38124 2.94696 5.05434 2.96595L4.06182 3.02219C3.80743 3.03684 3.55854 3.10359 3.32999 3.21846C3.10144 3.33333 2.89791 3.49396 2.73153 3.69079C2.56515 3.88761 2.43933 4.11659 2.36157 4.36408C2.28382 4.61157 2.25572 4.87249 2.27895 5.1313L2.36396 6.14133C2.39224 6.47416 2.33558 6.8088 2.1995 7.11268C2.06342 7.41656 1.85255 7.67935 1.5874 7.87548L0.783271 8.47072C0.577773 8.6228 0.404282 8.81539 0.273072 9.0371C0.141862 9.2588 0.0556003 9.5051 0.019395 9.76142C-0.0168104 10.0177 -0.00222338 10.2789 0.0622925 10.5293C0.126808 10.7798 0.239941 11.0145 0.394992 11.2196L1.00153 12.021C1.20174 12.2853 1.3315 12.5979 1.3782 12.9285C1.4249 13.2591 1.38695 13.5963 1.26805 13.9075L0.907336 14.8449C0.815127 15.0861 0.771306 15.3438 0.778466 15.6026C0.785626 15.8614 0.843622 16.1162 0.949021 16.3517C1.05442 16.5873 1.20508 16.7989 1.39208 16.974C1.57908 17.1491 1.79862 17.2841 2.03771 17.3711L2.9728 17.7109C3.28153 17.8229 3.55658 18.0145 3.77117 18.267C3.98577 18.5196 4.1326 18.8245 4.19737 19.1522L4.37657 20.0427L1.98946 27.9565L5.77576 26.7473L8.133 30L10.2858 22.822C10.608 23.0948 11.0096 23.2512 11.4281 23.2669C11.8466 23.2826 12.2584 23.1567 12.5994 22.9087L14.8647 30L17.2219 26.7473L21.0082 27.9565L18.5637 20.3075C18.5798 20.2536 18.5936 20.202 18.605 20.1458L18.8003 19.1522C18.8651 18.8245 19.0119 18.5196 19.2265 18.267C19.4411 18.0145 19.7162 17.8229 20.0249 17.7109L20.96 17.3711C21.1991 17.2841 21.4186 17.1491 21.6056 16.974C21.7926 16.7989 21.9433 16.5873 22.0487 16.3517C22.1541 16.1162 22.2121 15.8614 22.2192 15.6026C22.2264 15.3438 22.1826 15.0861 22.0904 14.8449L21.7297 13.9075C21.6108 13.5963 21.5728 13.2591 21.6195 12.9285C21.6662 12.5979 21.796 12.2853 21.9962 12.021L22.605 11.2102ZM4.93946 11.6367C4.93946 10.3135 5.32417 9.0199 6.04492 7.91965C6.76568 6.81939 7.79011 5.96185 8.98868 5.45545C10.1873 4.94906 11.5061 4.81657 12.7785 5.07472C14.0509 5.33288 15.2197 5.97009 16.137 6.90578C17.0544 7.84147 17.6791 9.03362 17.9322 10.3315C18.1853 11.6293 18.0554 12.9745 17.5589 14.1971C17.0625 15.4196 16.2217 16.4645 15.1431 17.1997C14.0644 17.9349 12.7962 18.3273 11.4989 18.3273C9.75975 18.3254 8.09241 17.6199 6.86268 16.3656C5.63295 15.1113 4.94129 13.4106 4.93946 11.6367Z" fill="white"/>
</svg>
